<svg id="Capa_1" enable-background="new 0 0 512 512" height="512" viewBox="0 0 512 512" width="512" xmlns="http://www.w3.org/2000/svg"><g><g><path d="m390.854 7.5h-359.618c-11.158 0-20.203 9.045-20.203 20.203v456.594c0 11.158 9.045 20.203 20.203 20.203h359.618c11.158 0 20.203-9.045 20.203-20.203v-456.594c.001-11.158-9.045-20.203-20.203-20.203z" fill="#f9f6f9"/></g><g><path d="m390.854 7.5h-20.203c11.158 0 20.203 9.045 20.203 20.203v456.594c0 11.158-9.045 20.203-20.203 20.203h20.203c11.158 0 20.203-9.045 20.203-20.203v-456.594c.001-11.158-9.045-20.203-20.203-20.203z" fill="#dddaec"/></g><g><g><g><path d="m145.385 233.776h131.321v335.374h-131.321z" fill="#df75a5" transform="matrix(0 1 -1 0 612.509 190.418)"/></g></g></g><g><g><path d="m90.836 162.055h101.016v141.423h-101.016z" fill="#b3e59f" transform="matrix(0 1 -1 0 374.11 91.422)"/></g></g><g><g><path d="m411.058 122.659c-49.653 0-89.904 40.252-89.904 89.904 0 17.691 5.113 34.186 13.937 48.094l-13.937 41.81 41.81-13.937c13.909 8.824 30.404 13.937 48.094 13.937 49.653 0 89.904-40.252 89.904-89.904s-40.252-89.904-89.904-89.904z" fill="#ffe07d"/></g><g><path d="m481.105 156.211c.738 5.067 1.127 10.248 1.127 15.52 0 58.963-47.799 106.762-106.762 106.762-15.407 0-30.049-3.269-43.278-9.143l-11.039 33.118 41.81-13.937c13.909 8.824 30.404 13.937 48.094 13.937 49.653 0 89.904-40.252 89.904-89.904.001-21.339-7.437-40.936-19.856-56.353z" fill="#ffd064"/></g></g><g><path d="m411.057 250.623c-4.207 0-7.617 3.41-7.617 7.618 0 4.207 3.41 7.618 7.617 7.618s7.618-3.411 7.618-7.618-3.41-7.618-7.618-7.618z"/><path d="m11.038 419.42c4.143 0 7.5-3.357 7.5-7.5v-384.22c0-7.003 5.697-12.7 12.7-12.7h359.62c7.002 0 12.699 5.697 12.699 12.7v31.73c0 4.143 3.357 7.5 7.5 7.5s7.5-3.357 7.5-7.5v-31.73c0-15.274-12.426-27.7-27.699-27.7h-359.62c-15.274 0-27.7 12.426-27.7 27.7v384.22c0 4.142 3.357 7.5 7.5 7.5z"/><path d="m185.743 370.135c-1.368-3.321-4.571-5.466-8.163-5.466-.003 0-.006 0-.01 0-3.595.004-6.798 2.156-8.16 5.483-.023.058-.047.114-.068.173l-22 57.764c-1.475 3.87.469 8.203 4.34 9.678 3.866 1.475 8.203-.468 9.678-4.34l3.639-9.555h24.995l3.598 9.534c1.133 3.003 3.987 4.854 7.018 4.854.88 0 1.775-.156 2.647-.485 3.875-1.462 5.831-5.789 4.368-9.665l-21.8-57.767c-.027-.07-.054-.139-.082-.208zm-15.032 38.737 6.842-17.965 6.78 17.965z"/><path d="m233.308 364.669c-4.143 0-7.5 3.357-7.5 7.5v58.589c0 4.143 3.357 7.5 7.5 7.5s7.5-3.357 7.5-7.5v-14.756l20.89 20.153c1.455 1.404 3.332 2.103 5.206 2.103 1.965 0 3.927-.768 5.398-2.293 2.876-2.98 2.791-7.729-.19-10.604l-25.989-25.074 23.777-21.857c3.05-2.803 3.25-7.548.446-10.597-2.803-3.051-7.547-3.25-10.597-.446l-18.941 17.411v-12.628c0-4.144-3.357-7.501-7.5-7.501z"/><path d="m121.815 379.883c4.143 0 7.5-3.357 7.5-7.5s-3.357-7.5-7.5-7.5h-23.572c-4.143 0-7.5 3.357-7.5 7.5v58.161c0 4.143 3.357 7.5 7.5 7.5s7.5-3.357 7.5-7.5v-22.131h14.2c4.143 0 7.5-3.357 7.5-7.5s-3.357-7.5-7.5-7.5h-14.2v-13.53z"/><path d="m323.848 364.937h-24.462c-4.143 0-7.5 3.357-7.5 7.5v58.054c0 4.143 3.357 7.5 7.5 7.5h24.462c4.143 0 7.5-3.357 7.5-7.5s-3.357-7.5-7.5-7.5h-16.962v-14.026h15.158c4.143 0 7.5-3.357 7.5-7.5s-3.357-7.5-7.5-7.5h-15.158v-14.027h16.962c4.143 0 7.5-3.357 7.5-7.5s-3.357-7.501-7.5-7.501z"/><path d="m386.232 335.803c0-4.143-3.357-7.5-7.5-7.5h-40.406c-4.143 0-7.5 3.357-7.5 7.5s3.357 7.5 7.5 7.5h32.906v32.906c0 4.143 3.357 7.5 7.5 7.5s7.5-3.357 7.5-7.5z"/><path d="m35.858 335.803v40.406c0 4.143 3.357 7.5 7.5 7.5s7.5-3.357 7.5-7.5v-32.906h32.907c4.143 0 7.5-3.357 7.5-7.5s-3.357-7.5-7.5-7.5h-40.407c-4.143 0-7.5 3.357-7.5 7.5z"/><path d="m378.732 419.218c-4.143 0-7.5 3.357-7.5 7.5v32.906h-32.906c-4.143 0-7.5 3.357-7.5 7.5s3.357 7.5 7.5 7.5h40.406c4.143 0 7.5-3.357 7.5-7.5v-40.406c0-4.143-3.357-7.5-7.5-7.5z"/><path d="m43.358 419.218c-4.143 0-7.5 3.357-7.5 7.5v40.406c0 4.143 3.357 7.5 7.5 7.5h40.407c4.143 0 7.5-3.357 7.5-7.5s-3.357-7.5-7.5-7.5h-32.907v-32.906c0-4.143-3.358-7.5-7.5-7.5z"/><path d="m69.916 42.892c-3.133.977-5.268 3.878-5.268 7.16v64.53c0 4.143 3.357 7.5 7.5 7.5s7.5-3.357 7.5-7.5v-40.471l29.964 43.39c2.229 3.215 5.931 4.586 9.44 3.488 3.583-1.12 5.898-4.49 5.898-8.658l-.604-62.472c-.041-4.142-3.39-7.484-7.572-7.428-4.143.04-7.468 3.431-7.428 7.572l.399 41.295-31.425-45.508c-1.865-2.701-5.268-3.873-8.404-2.898z"/><path d="m176.559 57.727c4.143 0 7.5-3.357 7.5-7.5s-3.357-7.5-7.5-7.5h-26.992c-4.143 0-7.5 3.357-7.5 7.5v64.06c0 4.143 3.357 7.5 7.5 7.5h26.992c4.143 0 7.5-3.357 7.5-7.5s-3.357-7.5-7.5-7.5h-19.492v-17.03h17.502c4.143 0 7.5-3.357 7.5-7.5s-3.357-7.5-7.5-7.5h-17.502v-17.03z"/><path d="m330.489 107.082c-6.587 0-12.932-2.662-16.972-7.12-2.781-3.069-7.524-3.303-10.594-.521s-3.303 7.524-.521 10.594c6.836 7.544 17.336 12.048 28.087 12.048 13.343 0 24.543-8.492 26.633-20.193 1.568-8.783-2.448-20.267-18.424-26.16-8.037-2.964-15.514-6.195-17.705-7.155-2.054-1.599-1.988-3.856-1.854-4.792.18-1.251 1.08-4.307 5.549-5.652 9.417-2.839 18.081 4.021 18.327 4.219 3.17 2.632 7.877 2.215 10.532-.944 2.665-3.171 2.256-7.902-.915-10.567-.6-.504-14.899-12.301-32.271-7.07-8.705 2.622-14.863 9.475-16.071 17.884-1.131 7.877 2.282 15.453 8.907 19.772.332.217.68.406 1.041.567.373.166 9.261 4.122 19.269 7.812 2.972 1.097 9.783 4.212 8.848 9.45-.688 3.847-5.313 7.828-11.866 7.828z"/><path d="m271.875 48.586-7.94 39.897-12.557-40.76c-1.22-3.959-5.418-6.179-9.376-4.96-2.701.832-4.59 3.051-5.132 5.634l-12.408 40.09-7.915-40.011c-.804-4.063-4.748-6.711-8.812-5.902-4.063.804-6.706 4.749-5.902 8.812l12.597 63.68c.07.358.168.711.29 1.055 1.268 3.572 4.655 5.961 8.441 5.961h.062c3.811-.026 7.195-2.469 8.422-6.077.021-.065.043-.13.063-.195l12.504-40.398 12.449 40.408c.031.102.064.202.101.302 1.268 3.571 4.655 5.961 8.441 5.961h.059c3.811-.025 7.195-2.465 8.424-6.072.106-.312.191-.631.256-.954l12.646-63.542c.809-4.062-1.829-8.011-5.892-8.819-4.066-.812-8.013 1.827-8.821 5.89z"/><path d="m159.967 189.76c4.143 0 7.5-3.357 7.5-7.5s-3.357-7.5-7.5-7.5h-89.33c-4.143 0-7.5 3.357-7.5 7.5v101.01c0 4.143 3.357 7.5 7.5 7.5h141.42c4.143 0 7.5-3.357 7.5-7.5v-101.01c0-4.143-3.357-7.5-7.5-7.5h-17.09c-4.143 0-7.5 3.357-7.5 7.5s3.357 7.5 7.5 7.5h9.59v86.01h-126.42v-86.01z"/><path d="m508.462 212.563c0-51.186-39.687-93.277-89.905-97.119v-21.014c0-4.143-3.357-7.5-7.5-7.5s-7.5 3.357-7.5 7.5v21.015c-23.223 1.777-44.19 11.736-60.025 26.988h-300.174c-4.143 0-7.5 3.357-7.5 7.5s3.357 7.5 7.5 7.5h287.444c-3.727 5.408-6.926 11.206-9.512 17.325h-56.706c-4.143 0-7.5 3.357-7.5 7.5s3.357 7.5 7.5 7.5h51.772c-1.451 6.026-2.34 12.269-2.609 18.669h-69.367c-4.143 0-7.5 3.357-7.5 7.5s3.357 7.5 7.5 7.5h69.888c.709 6.361 2.039 12.614 3.967 18.679h-73.855c-4.143 0-7.5 3.357-7.5 7.5s3.357 7.5 7.5 7.5h80.052c.778 1.51 1.584 3.007 2.443 4.479l-4.73 14.19h-77.765c-4.143 0-7.5 3.357-7.5 7.5s3.357 7.5 7.5 7.5h72.764l-3.107 9.321c-.898 2.695-.197 5.667 1.812 7.676 1.43 1.43 3.347 2.196 5.305 2.196.793 0 1.594-.126 2.371-.385l38.512-12.838c12.692 7.405 26.864 11.801 41.521 12.924v174.631c0 7.003-5.697 12.7-12.699 12.7h-359.621c-7.003 0-12.7-5.697-12.7-12.7v-37.38c0-4.143-3.357-7.5-7.5-7.5s-7.5 3.357-7.5 7.5v37.38c0 15.274 12.426 27.7 27.7 27.7h359.62c15.273 0 27.699-12.426 27.699-27.7v-174.618c50.218-3.842 89.905-45.933 89.905-97.119zm-97.405 82.405c-15.667 0-30.908-4.416-44.076-12.771-1.215-.771-2.61-1.167-4.018-1.167-.798 0-1.599.127-2.372.385l-27.58 9.194 9.193-27.58c.713-2.14.426-4.485-.782-6.39-8.354-13.169-12.77-28.41-12.77-44.076 0-45.438 36.967-82.405 82.404-82.405 45.438 0 82.405 36.967 82.405 82.405.001 45.438-36.965 82.405-82.404 82.405z"/><path d="m411.168 234.823c4.143 0 7.5-3.357 7.5-7.5v-68.056c0-4.143-3.357-7.5-7.5-7.5s-7.5 3.357-7.5 7.5v68.056c0 4.143 3.358 7.5 7.5 7.5z"/></g></g></svg>